HIERARCHY
ROOT root
{
  OFFSET 0 93.2929 0
  CHANNELS 6 Xposition Yposition Zposition Zrotation Xrotation Yrotation
  JOINT torso_1
  {
    OFFSET 0 5.07867 -1.15138
    CHANNELS 6 Xposition Yposition Zposition Zrotation Xrotation Yrotation
    JOINT torso_2
    {
      OFFSET 0 5.61661 1.07143
      CHANNELS 6 Xposition Yposition Zposition Zrotation Xrotation Yrotation
      JOINT torso_3
      {
        OFFSET -1.02604e-17 5.98978 0.11501
        CHANNELS 6 Xposition Yposition Zposition Zrotation Xrotation Yrotation
        JOINT torso_4
        {
          OFFSET -1.10457e-17 6.50583 -0.443523
          CHANNELS 6 Xposition Yposition Zposition Zrotation Xrotation Yrotation
          JOINT torso_5
          {
            OFFSET -1.97295e-17 7.60548 -1.50593
            CHANNELS 6 Xposition Yposition Zposition Zrotation Xrotation Yrotation
            JOINT torso_6
            {
              OFFSET -2.53307e-17 9.49737 -0.914492
              CHANNELS 6 Xposition Yposition Zposition Zrotation Xrotation Yrotation
              JOINT torso_7
              {
                OFFSET -2.90401e-17 10.5513 1.57691
                CHANNELS 6 Xposition Yposition Zposition Zrotation Xrotation Yrotation
                JOINT neck_1
                {
                  OFFSET -1.29193e-17 4.78644 0.715339
                  CHANNELS 6 Xposition Yposition Zposition Zrotation Xrotation Yrotation
                  JOINT neck_2
                  {
                    OFFSET -1.8116e-17 4.82109 0.421791
                    CHANNELS 6 Xposition Yposition Zposition Zrotation Xrotation Yrotation
                    JOINT head
                    {
                      OFFSET -2.00958e-17 4.83041 0.765062
                      CHANNELS 6 Xposition Yposition Zposition Zrotation Xrotation Yrotation
                      End Site
                      {
                        OFFSET 0 0.1 0
                      }
                    }
                  }
                }
                JOINT l_shoulder
                {
                  OFFSET 1.23299 -7.60731 7.53374
                  CHANNELS 6 Xposition Yposition Zposition Zrotation Xrotation Yrotation
                  JOINT l_up_arm
                  {
                    OFFSET 12.9547 3.2495 -3.26872
                    CHANNELS 6 Xposition Yposition Zposition Zrotation Xrotation Yrotation
                    JOINT l_low_arm
                    {
                      OFFSET 29.2081 0.0598081 0.137039
                      CHANNELS 6 Xposition Yposition Zposition Zrotation Xrotation Yrotation
                      JOINT l_hand
                      {
                        OFFSET 24.234 0.0496219 0.113701
                        CHANNELS 6 Xposition Yposition Zposition Zrotation Xrotation Yrotation
                        End Site
                        {
                          OFFSET 0.1 0 0
                        }
                      }
                    }
                  }
                }
                JOINT r_shoulder
                {
                  OFFSET -1.23299 -7.60729 7.53365
                  CHANNELS 6 Xposition Yposition Zposition Zrotation Xrotation Yrotation
                  JOINT r_up_arm
                  {
                    OFFSET -12.9547 3.2495 -3.26872
                    CHANNELS 6 Xposition Yposition Zposition Zrotation Xrotation Yrotation
                    JOINT r_low_arm
                    {
                      OFFSET -29.2081 0.0598081 0.137039
                      CHANNELS 6 Xposition Yposition Zposition Zrotation Xrotation Yrotation
                      JOINT r_hand
                      {
                        OFFSET -24.234 0.0496218 0.113702
                        CHANNELS 6 Xposition Yposition Zposition Zrotation Xrotation Yrotation
                        End Site
                        {
                          OFFSET -0.1 0 0
                        }
                      }
                    }
                  }
                }
              }
            }
          }
        }
      }
    }
  }
  JOINT l_up_leg
  {
    OFFSET 9.23673 -4.20556 2.0327
    CHANNELS 6 Xposition Yposition Zposition Zrotation Xrotation Yrotation
    JOINT l_low_leg
    {
      OFFSET -0.852353 -38.7721 -0.655187
      CHANNELS 6 Xposition Yposition Zposition Zrotation Xrotation Yrotation
      JOINT l_foot
      {
        OFFSET -2.32622 -40.4017 -6.04875
        CHANNELS 6 Xposition Yposition Zposition Zrotation Xrotation Yrotation
        JOINT l_toes
        {
          OFFSET 0.779096 -9.8844 12.4959
          CHANNELS 6 Xposition Yposition Zposition Zrotation Xrotation Yrotation
          End Site
          {
            OFFSET 0 0 0.1
          }
        }
      }
    }
  }
  JOINT r_up_leg
  {
    OFFSET -9.23673 -4.20556 2.0327
    CHANNELS 6 Xposition Yposition Zposition Zrotation Xrotation Yrotation
    JOINT r_low_leg
    {
      OFFSET 0.852353 -38.7721 -0.655187
      CHANNELS 6 Xposition Yposition Zposition Zrotation Xrotation Yrotation
      JOINT r_foot
      {
        OFFSET 2.32622 -40.4017 -6.04875
        CHANNELS 6 Xposition Yposition Zposition Zrotation Xrotation Yrotation
        JOINT r_toes
        {
          OFFSET -0.779096 -9.8844 12.4959
          CHANNELS 6 Xposition Yposition Zposition Zrotation Xrotation Yrotation
          End Site
          {
            OFFSET 0 0 0.1
          }
        }
      }
    }
  }
}
MOTION
Frames: 4
Frame Time: 0.016667
0 93.2929 0 -0 0 -0 0 5.07867 -1.15138 -0 0 -0 0 5.61661 1.07143 -0 0 -0 -1.02604e-17 5.98978 0.11501 -0 0 -0 -1.10457e-17 6.50583 -0.443523 -0 0 -0 -1.97295e-17 7.60548 -1.50593 -0 0 -0 -2.53307e-17 9.49737 -0.914492 -0 0 -0 -2.90401e-17 10.5513 1.57691 -0 0 -0 -1.29193e-17 4.78644 0.715339 -0 0 -0 -1.8116e-17 4.82109 0.421791 -0 0 -0 -2.00958e-17 4.83041 0.765062 -0 0 -0 1.23299 -7.60731 7.53374 -0 0 -0 12.9547 3.2495 -3.26872 -0 0 -0 29.2081 0.0598081 0.137039 -0 0 -0 24.234 0.0496219 0.113701 -0 0 -0 -1.23299 -7.60729 7.53365 -0 0 -0 -12.9547 3.2495 -3.26872 -0 0 -0 -29.2081 0.0598081 0.137039 -0 0 -0 -24.234 0.0496218 0.113702 -0 0 -0 9.23673 -4.20556 2.0327 -0 0 -0 -0.852353 -38.7721 -0.655187 -0 0 -0 -2.32622 -40.4017 -6.04875 -0 0 -0 0.779096 -9.8844 12.4959 -0 0 -0 -9.23673 -4.20556 2.0327 -0 0 -0 0.852353 -38.7721 -0.655187 -0 0 -0 2.32622 -40.4017 -6.04875 -0 0 -0 -0.779096 -9.8844 12.4959 -0 0 -0 
6.0613 90.7986 52.4243 10.0827 -8.64095 0.701246 0 5.07867 -1.15138 -3.44692 6.15373 -0.04628 0 5.61661 1.07143 -2.64768 4.2279 -0.379988 -1.02604e-17 5.98978 0.11501 -2.01107 2.47914 -0.307088 -1.10457e-17 6.50583 -0.443523 -1.24572 -1.04049 -0.382103 -1.97295e-17 7.60548 -1.50593 -0.529681 -2.5429 -0.302576 -2.53307e-17 9.49737 -0.914492 0.119939 -4.98686 -0.602369 -2.90401e-17 10.5513 1.57691 0.021202 1.08684 -0.165213 -1.29193e-17 4.78644 0.715339 0.69672 10.0112 1.61298 -1.8116e-17 4.82109 0.421791 0.0998389 -4.3925 0.487251 -2.00958e-17 4.83041 0.765062 -0.553634 -7.93056 2.98099 1.23299 -7.60731 7.53374 25.2088 5.84974 2.08294 12.9547 3.2495 -3.26872 -98.5064 30.698 7.39315 29.2081 0.0598081 0.137039 4.30925 -0.784421 -21.2168 24.234 0.0496219 0.113701 -7.1104 -29.463 -0.283524 -1.23299 -7.60729 7.53365 -22.5959 4.58348 -3.20629 -12.9547 3.2495 -3.26872 100.944 21.0377 -8.09495 -29.2081 0.0598081 0.137039 -3.86828 -0.625646 18.9617 -24.234 0.0496218 0.113702 6.90164 -17.6332 0.656085 9.23673 -4.20556 2.0327 -9.89174 0.865594 -16.0187 -0.852353 -38.7721 -0.655187 -1.60072 5.97237 -0.0208292 -2.32622 -40.4017 -6.04875 -1.07456 -0.66914 15.1009 0.779096 -9.8844 12.4959 6.63931e-18 -7.95708e-16 1.29931e-17 -9.23673 -4.20556 2.0327 -9.77731 -11.4418 19.8666 0.852353 -38.7721 -0.655187 5.05261 18.3863 -0.494154 2.32622 -40.4017 -6.04875 -0.998244 -6.12361 -15.3478 -0.779096 -9.8844 12.4959 -9.39297e-16 -5.48934e-16 -1.27245e-14 
6.04312 90.7976 52.4936 10.0623 -8.5678 0.696935 0 5.07867 -1.15138 -3.4673 6.21498 -0.0395488 0 5.61661 1.07143 -2.66434 4.2612 -0.372108 -1.02604e-17 5.98978 0.11501 -2.02238 2.48028 -0.298915 -1.10457e-17 6.50583 -0.443523 -1.25077 -1.09864 -0.375266 -1.97295e-17 7.60548 -1.50593 -0.526879 -2.61698 -0.294722 -2.53307e-17 9.49737 -0.914492 0.12794 -5.09667 -0.599869 -2.90401e-17 10.5513 1.57691 0.022642 1.09497 -0.164644 -1.29193e-17 4.78644 0.715339 0.697874 10.0626 1.60887 -1.8116e-17 4.82109 0.421791 0.138877 -4.35646 0.485128 -2.00958e-17 4.83041 0.765062 -0.512109 -7.88573 2.95649 1.23299 -7.60731 7.53374 25.6258 5.92975 2.11659 12.9547 3.2495 -3.26872 -98.8129 30.7718 7.56129 29.2081 0.0598081 0.137039 4.34582 -0.798466 -21.4051 24.234 0.0496219 0.113701 -7.25411 -29.4614 -0.293165 -1.23299 -7.60729 7.53365 -22.7654 4.64721 -3.25755 -12.9547 3.2495 -3.26872 101.224 21.0237 -8.15849 -29.2081 0.0598081 0.137039 -3.87048 -0.62639 18.9729 -24.234 0.0496218 0.113702 6.97681 -17.5914 0.601335 9.23673 -4.20556 2.0327 -9.86815 0.824229 -15.832 -0.852353 -38.7721 -0.655187 -1.60391 5.98424 -0.0207037 -2.32622 -40.4017 -6.04875 -1.00514 -0.712698 15.0955 0.779096 -9.8844 12.4959 4.30569e-17 -7.9457e-16 1.1855e-17 -9.23673 -4.20556 2.0327 -9.75692 -11.533 19.8637 0.852353 -38.7721 -0.655187 5.05955 18.4101 -0.495928 2.32622 -40.4017 -6.04875 -0.935036 -6.13029 -15.3471 -0.779096 -9.8844 12.4959 -1.23823e-15 -5.38454e-16 -1.2714e-14 
6.02601 90.7977 52.5624 10.035 -8.49725 0.701231 0 5.07867 -1.15138 -3.47499 6.27135 -0.0422091 0 5.61661 1.07143 -2.66922 4.29503 -0.374202 -1.02604e-17 5.98978 0.11501 -2.02485 2.49058 -0.300656 -1.10457e-17 6.50583 -0.443523 -1.25048 -1.13142 -0.377456 -1.97295e-17 7.60548 -1.50593 -0.524152 -2.66458 -0.297126 -2.53307e-17 9.49737 -0.914492 0.130708 -5.16265 -0.604527 -2.90401e-17 10.5513 1.57691 0.0234251 1.09927 -0.162636 -1.29193e-17 4.78644 0.715339 0.696898 10.0256 1.64549 -1.8116e-17 4.82109 0.421791 0.1626 -4.32017 0.502288 -2.00958e-17 4.83041 0.765062 -0.477847 -7.83964 2.91866 1.23299 -7.60731 7.53374 25.8092 5.99145 2.11027 12.9547 3.2495 -3.26872 -98.9904 30.8263 7.72432 29.2081 0.0598081 0.137039 4.39194 -0.81638 -21.643 24.234 0.0496219 0.113701 -7.28817 -29.5505 -0.290398 -1.23299 -7.60729 7.53365 -22.8265 4.70427 -3.2449 -12.9547 3.2495 -3.26872 101.289 21.1034 -8.22727 -29.2081 0.0598081 0.137039 -3.87811 -0.628972 19.0116 -24.234 0.0496218 0.113702 7.12989 -17.6827 0.688563 9.23673 -4.20556 2.0327 -9.83662 0.796877 -15.6843 -0.852353 -38.7721 -0.655187 -1.60224 5.97804 -0.0207693 -2.32622 -40.4017 -6.04875 -0.969145 -0.764189 15.0953 0.779096 -9.8844 12.4959 1.9632e-16 -7.83853e-16 1.13805e-18 -9.23673 -4.20556 2.0327 -9.73317 -11.6166 19.8449 0.852353 -38.7721 -0.655187 5.06565 18.4309 -0.49749 2.32622 -40.4017 -6.04875 -0.880954 -6.13141 -15.3462 -0.779096 -9.8844 12.4959 -3.88465e-16 -5.72075e-16 -1.27536e-14 
